<?xml version="1.0" encoding="UTF-8"?>
<svg width="32" height="32" viewBox="0 0 32 32" fill="none" xmlns="http://www.w3.org/2000/svg">
  <!-- Cloud -->
  <path d="M24 12C26.2091 12 28 13.7909 28 16C28 18.2091 26.2091 20 24 20H8C5.79086 20 4 18.2091 4 16C4 13.7909 5.79086 12 8 12C8 8.68629 10.6863 6 14 6C16.5194 6 18.6891 7.59281 19.5578 9.81147C20.7875 9.29802 22.1556 9 23.6 9C23.7347 9 23.8682 9.00303 24 9.00899V12Z" fill="#FBB03B"/>
  <!-- Bee body -->
  <circle cx="22" cy="18" r="4" fill="#FBB03B"/>
  <!-- Stripes -->
  <rect x="20" y="17" width="4" height="0.8" fill="rgba(0,0,0,0.2)"/>
  <rect x="20" y="18.5" width="4" height="0.8" fill="rgba(0,0,0,0.2)"/>
  <!-- Wings -->
  <circle cx="19.5" cy="16" r="2" fill="rgba(255,255,255,0.7)"/>
  <circle cx="21" cy="16" r="2" fill="rgba(255,255,255,0.7)"/>
</svg>